<?xml version="1.0" encoding="utf-8"?><svg viewBox="0 0 133 79" xmlns="http://www.w3.org/2000/svg" xmlns:xlink="http://www.w3.org/1999/xlink"><style>:root>svg{display:none}:root>svg:target{display:block}</style><svg fill="none" viewBox="0 0 133 37" id="Elemt_11" xmlns="http://www.w3.org/2000/svg"><path fill-rule="evenodd" clip-rule="evenodd" d="M124.119 5.283c1.83 1.97 3.898 4.197 7.897 4.197l.031.016V7.929c-3.314 0-4.975-1.793-6.741-3.7l-.013-.014-.016-.018C123.448 2.227 121.38 0 117.38 0c-3.999 0-6.067 2.227-7.896 4.197l-.017.018c-1.755 1.912-3.431 3.714-6.753 3.714-3.314 0-4.975-1.793-6.741-3.7l-.013-.014-.017-.018C94.114 2.227 92.046 0 88.047 0c-4 0-6.067 2.227-7.896 4.197l-.017.018-.013.014c-1.766 1.907-3.427 3.7-6.74 3.7-3.314 0-4.975-1.793-6.741-3.7l-.013-.014-.017-.018C64.78 2.227 62.713 0 58.714 0c-4 0-6.067 2.227-7.897 4.197l-.016.018c-1.755 1.912-3.432 3.714-6.754 3.714-3.314 0-4.975-1.793-6.74-3.7l-.014-.014-.016-.018C35.447 2.227 33.379 0 29.38 0s-6.067 2.227-7.896 4.197l-.017.018-.012.014c-1.766 1.906-3.427 3.7-6.757 3.7-3.33 0-4.99-1.794-6.756-3.7l-.013-.014-.017-.018C6.082 2.227 4.015 0 .016 0v1.567c3.315 0 4.992 1.795 6.759 3.687l.01.011.017.018c1.829 1.97 3.897 4.197 7.896 4.197 4 0 6.067-2.227 7.896-4.197l.017-.018c1.77-1.912 3.447-3.714 6.77-3.714 3.313 0 4.974 1.794 6.74 3.7l.013.014.017.018c1.829 1.97 3.897 4.197 7.896 4.197 4 0 6.067-2.227 7.896-4.197l.017-.018c1.755-1.912 3.432-3.714 6.754-3.714 3.314 0 4.975 1.794 6.74 3.7l.013.014c1.834 1.974 3.918 4.215 7.913 4.215 3.984 0 6.052-2.227 7.881-4.197l.017-.018c1.755-1.912 3.431-3.714 6.753-3.714 3.314 0 4.975 1.794 6.741 3.7l.013.014c1.818 1.974 3.886 4.215 7.897 4.215 4 0 6.068-2.227 7.897-4.197l.016-.018c1.755-1.912 3.432-3.714 6.754-3.714 3.314 0 4.975 1.794 6.741 3.7l.013.014.016.018Zm7.897 17.548c-4 0-6.067-2.227-7.897-4.197l-.016-.018-.013-.014c-1.766-1.907-3.427-3.7-6.741-3.7-3.322 0-4.999 1.802-6.754 3.714l-.016.018c-1.83 1.97-3.898 4.197-7.897 4.197s-6.067-2.227-7.896-4.197l-.017-.018-.013-.014c-1.766-1.907-3.426-3.7-6.74-3.7-3.322 0-4.999 1.802-6.754 3.714l-.017.018c-1.829 1.97-3.897 4.197-7.88 4.197-3.996 0-6.08-2.241-7.913-4.215l-.013-.014c-1.766-1.907-3.427-3.7-6.741-3.7-3.322 0-4.999 1.802-6.754 3.714l-.016.018c-1.83 1.97-3.897 4.197-7.897 4.197-3.999 0-6.067-2.227-7.896-4.197l-.017-.018-.013-.014c-1.765-1.907-3.426-3.7-6.74-3.7-3.322 0-4.999 1.802-6.77 3.714l-.016.018c-1.83 1.97-3.898 4.197-7.897 4.197s-6.067-2.227-7.896-4.197l-.017-.018-.013-.014c-1.765-1.907-3.426-3.7-6.756-3.7v-1.567c4 0 6.067 2.227 7.896 4.197l.017.018.013.014c1.766 1.906 3.427 3.7 6.756 3.7 3.33 0 4.99-1.794 6.757-3.7l.013-.014.016-.018c1.83-1.97 3.898-4.197 7.897-4.197s6.067 2.227 7.896 4.197l.017.018.013.014c1.766 1.906 3.427 3.7 6.74 3.7 3.322 0 4.999-1.802 6.754-3.714l.017-.018c1.829-1.97 3.897-4.197 7.896-4.197 4 0 6.067 2.227 7.896 4.197l.017.018.013.014c1.766 1.906 3.427 3.7 6.74 3.7 3.315 0 4.975-1.794 6.741-3.7l.013-.014.017-.018c1.83-1.97 3.897-4.197 7.896-4.197 4 0 6.067 2.227 7.897 4.197l.016.018.013.014c1.766 1.906 3.427 3.7 6.741 3.7 3.322 0 4.999-1.802 6.754-3.714l.016-.018c1.83-1.97 3.898-4.197 7.897-4.197s6.067 2.227 7.896 4.197l.017.018.013.014c1.766 1.906 3.426 3.7 6.74 3.7v1.567h-.015Zm0 13.35c-3.999 0-6.067-2.227-7.897-4.197l-.016-.018-.013-.014c-1.766-1.907-3.427-3.7-6.741-3.7-3.322 0-4.999 1.802-6.754 3.714l-.016.018c-1.829 1.97-3.897 4.197-7.897 4.197-4.011 0-6.08-2.24-7.897-4.215l-.013-.014c-1.766-1.907-3.427-3.7-6.74-3.7-3.323 0-5 1.802-6.754 3.714l-.017.018c-1.83 1.97-3.897 4.197-7.88 4.197-3.996 0-6.08-2.24-7.914-4.215l-.013-.014c-1.765-1.907-3.426-3.7-6.74-3.7-3.322 0-4.999 1.802-6.754 3.714l-.017.018c-1.829 1.97-3.897 4.197-7.896 4.197-4 0-6.067-2.227-7.896-4.197l-.017-.018-.013-.014c-1.766-1.907-3.427-3.7-6.74-3.7-3.323 0-5 1.802-6.77 3.714l-.017.018c-1.829 1.97-3.897 4.197-7.896 4.197-4 0-6.067-2.227-7.896-4.197l-.017-.018-.013-.014c-1.766-1.906-3.427-3.7-6.756-3.7v-1.567c3.999 0 6.067 2.227 7.896 4.197l.017.018.013.014c1.765 1.907 3.426 3.7 6.756 3.7s4.99-1.793 6.756-3.7l.013-.014.017-.018c1.83-1.97 3.897-4.197 7.896-4.197 4 0 6.067 2.227 7.897 4.197l.017.018.012.014c1.766 1.907 3.427 3.7 6.741 3.7 3.322 0 4.999-1.802 6.754-3.714l.016-.018c1.83-1.97 3.898-4.197 7.897-4.197s6.067 2.227 7.896 4.197l.017.018.013.014c1.766 1.907 3.427 3.7 6.74 3.7 3.314 0 4.975-1.793 6.741-3.7l.013-.014.017-.018c1.829-1.97 3.897-4.197 7.896-4.197 4 0 6.067 2.227 7.896 4.197l.017.018.013.014c1.766 1.907 3.427 3.7 6.741 3.7 3.322 0 4.998-1.802 6.753-3.714l.017-.018c1.829-1.97 3.897-4.197 7.896-4.197 4 0 6.068 2.227 7.897 4.197l.016.018.013.014c1.766 1.907 3.427 3.7 6.741 3.7v1.567h-.031Z" fill="url(#ga)"/><defs><linearGradient id="ga" x1="66.031" y1="0" x2="66.016" y2="41" gradientUnits="userSpaceOnUse"><stop stop-color="#61E8EC"/><stop offset="1" stop-color="#362D1F" stop-opacity="0"/></linearGradient></defs></svg><svg fill="none" viewBox="0 0 132 11" id="Vector" xmlns="http://www.w3.org/2000/svg"><path d="M132 10.181c-4.011 0-6.08-2.24-7.913-4.215-1.771-1.912-3.432-3.714-6.754-3.714-3.322 0-4.998 1.802-6.753 3.714-1.834 1.974-3.902 4.215-7.913 4.215-4.012 0-6.08-2.24-7.898-4.215-1.77-1.912-3.431-3.714-6.753-3.714s-4.999 1.802-6.754 3.714C79.43 7.94 77.36 10.18 73.365 10.18c-3.996 0-6.08-2.24-7.913-4.215-1.771-1.912-3.432-3.714-6.754-3.714-3.322 0-4.999 1.802-6.754 3.714-1.833 1.974-3.901 4.215-7.913 4.215-4.011 0-6.08-2.24-7.913-4.215-1.77-1.912-3.431-3.714-6.753-3.714s-4.999 1.802-6.77 3.714c-1.833 1.974-3.901 4.215-7.913 4.215-4.011 0-6.08-2.24-7.913-4.215C5 4.054 3.338 2.252 0 2.252V.685c4.011 0 6.08 2.241 7.913 4.215 1.77 1.912 3.432 3.714 6.77 3.714 3.337 0 4.998-1.802 6.769-3.714C23.285 2.926 25.353.685 29.365.685c4.011 0 6.08 2.241 7.913 4.215 1.77 1.912 3.431 3.714 6.753 3.714S49.03 6.812 50.785 4.9C52.618 2.926 54.687.685 58.698.685s6.08 2.241 7.913 4.215c1.77 1.912 3.432 3.714 6.754 3.714 3.322 0 4.983-1.802 6.753-3.714C81.952 2.926 84.02.685 88.031.685c4.012 0 6.08 2.241 7.913 4.215 1.771 1.912 3.432 3.714 6.754 3.714 3.322 0 4.999-1.802 6.754-3.714 1.833-1.974 3.901-4.215 7.913-4.215 4.011 0 6.079 2.241 7.913 4.215 1.77 1.912 3.431 3.714 6.753 3.714v1.567H132Z" fill="url(#qa)"/><defs><linearGradient id="qa" x1="66.016" y1=".685" x2="66.016" y2="10.181" gradientUnits="userSpaceOnUse"><stop stop-color="#61E8EC"/><stop offset="1" stop-color="#1F2636" stop-opacity="0"/></linearGradient></defs></svg><svg fill="none" viewBox="0 0 17 14" id="Vector_(1)" xmlns="http://www.w3.org/2000/svg"><path d="M16.11 13.29H0L8.05.14l8.06 13.15Z" fill="#00CCB3"/></svg><svg fill="none" viewBox="0 0 18 14" id="arrow" xmlns="http://www.w3.org/2000/svg"><path d="M0 14h2v-4c0-.833.292-1.542.875-2.125A2.893 2.893 0 0 1 5 7h9.2l-3.6 3.6L12 12l6-6-6-6-1.4 1.4L14.2 5H5c-1.383 0-2.562.487-3.537 1.462C.488 7.437 0 8.617 0 10v4Z" fill="#fff"/></svg><svg fill="none" viewBox="0 0 24 24" id="arrow_upward" xmlns="http://www.w3.org/2000/svg"><mask id="ba" style="mask-type:alpha" maskUnits="userSpaceOnUse" x="0" y="0" width="24" height="24"><path transform="rotate(-180 24 24)" fill="#D9D9D9" d="M24 24h24v24H24z"/></mask><g mask="url(#ba)"><path d="M13 4v12.175l5.6-5.6L20 12l-8 8-8-8 1.4-1.425 5.6 5.6V4h2Z" fill="#fff"/></g></svg><svg fill="none" viewBox="0 0 36 37" id="calendar_month" xmlns="http://www.w3.org/2000/svg"><mask id="ca" style="mask-type:alpha" maskUnits="userSpaceOnUse" x="0" y="0" width="36" height="37"><path fill="#D6377F" d="M0 .5h36v36H0z"/></mask><g mask="url(#ca)"><path d="M12 27.5c-.425 0-.781-.144-1.07-.432A1.45 1.45 0 0 1 10.5 26c0-.425.143-.781.43-1.068A1.453 1.453 0 0 1 12 24.5c.425 0 .781.144 1.07.432.287.287.43.643.43 1.068 0 .425-.143.781-.43 1.068A1.453 1.453 0 0 1 12 27.5Zm0-6c-.425 0-.781-.144-1.07-.432A1.45 1.45 0 0 1 10.5 20c0-.425.143-.782.43-1.07.289-.287.645-.43 1.07-.43.425 0 .781.143 1.07.43.287.288.43.645.43 1.07 0 .425-.143.781-.43 1.068A1.453 1.453 0 0 1 12 21.5Zm6 6c-.425 0-.781-.144-1.068-.432A1.448 1.448 0 0 1 16.5 26c0-.425.144-.781.432-1.068A1.448 1.448 0 0 1 18 24.5c.425 0 .782.144 1.07.432.287.287.43.643.43 1.068 0 .425-.143.781-.43 1.068A1.453 1.453 0 0 1 18 27.5Zm0-6c-.425 0-.781-.144-1.068-.432A1.448 1.448 0 0 1 16.5 20c0-.425.144-.782.432-1.07A1.45 1.45 0 0 1 18 18.5c.425 0 .782.143 1.07.43.287.288.43.645.43 1.07 0 .425-.143.781-.43 1.068A1.453 1.453 0 0 1 18 21.5Zm6 6c-.425 0-.781-.144-1.068-.432A1.448 1.448 0 0 1 22.5 26c0-.425.144-.781.432-1.068A1.448 1.448 0 0 1 24 24.5c.425 0 .781.144 1.068.432.288.287.432.643.432 1.068 0 .425-.144.781-.432 1.068A1.448 1.448 0 0 1 24 27.5Zm0-6c-.425 0-.781-.144-1.068-.432A1.448 1.448 0 0 1 22.5 20c0-.425.144-.782.432-1.07A1.45 1.45 0 0 1 24 18.5c.425 0 .781.143 1.068.43.288.288.432.645.432 1.07 0 .425-.144.781-.432 1.068A1.448 1.448 0 0 1 24 21.5Zm-16.5 12a2.893 2.893 0 0 1-2.12-.88 2.893 2.893 0 0 1-.88-2.12v-21c0-.825.293-1.531.88-2.118A2.89 2.89 0 0 1 7.5 6.5H9v-3h3v3h12v-3h3v3h1.5a2.89 2.89 0 0 1 2.12.882c.586.587.88 1.293.88 2.118v21c0 .825-.294 1.532-.88 2.12a2.893 2.893 0 0 1-2.12.88h-21Zm0-3h21v-15h-21v15Zm0-18h21v-3h-21v3Z" fill="#D6377F"/></g></svg><svg fill="none" viewBox="0 0 29 28" id="calendar_today" xmlns="http://www.w3.org/2000/svg"><mask id="da" style="mask-type:alpha" maskUnits="userSpaceOnUse" x="0" y="0" width="29" height="28"><path fill="#D9D9D9" d="M.5 0h28v28H.5z"/></mask><g mask="url(#da)"><path d="M6.683 25.083c-.583 0-1.079-.204-1.487-.612a2.025 2.025 0 0 1-.613-1.488V7.35c0-.583.204-1.08.613-1.488a2.025 2.025 0 0 1 1.487-.612h1.634V2.77h1.779v2.48h8.837V2.77h1.75v2.48h1.634c.583 0 1.079.204 1.487.612.409.409.613.905.613 1.488v15.633c0 .584-.205 1.08-.613 1.488a2.025 2.025 0 0 1-1.487.612H6.683Zm0-1.75h15.634c.077 0 .155-.039.233-.116.078-.078.117-.156.117-.234V12.017H6.333v10.966c0 .078.04.156.117.234.078.077.156.116.233.116Zm-.35-13.066h16.334V7.35c0-.078-.04-.156-.117-.233-.078-.078-.156-.117-.233-.117H6.683c-.077 0-.155.039-.233.117-.078.077-.117.155-.117.233v2.917Z" fill="#FD6585"/></g></svg><svg fill="none" viewBox="0 0 24 24" id="cube" xmlns="http://www.w3.org/2000/svg"><mask id="ea" style="mask-type:alpha" maskUnits="userSpaceOnUse" x="0" y="0" width="24" height="24"><path fill="#D9D9D9" d="M0 0h24v24H0z"/></mask><g mask="url(#ea)"><path d="m11 19.55-5-2.875a1.955 1.955 0 0 1-.737-.737A2.016 2.016 0 0 1 5 14.925V9.2c0-.367.088-.704.263-1.013.175-.308.42-.554.737-.737l5-2.875c.317-.183.65-.275 1-.275s.683.092 1 .275l5 2.875c.317.183.563.429.738.737.175.309.262.646.262 1.013v5.725c0 .367-.087.704-.262 1.013a1.962 1.962 0 0 1-.738.737l-5 2.875c-.317.183-.65.275-1 .275s-.683-.092-1-.275Zm0-2.3v-4.6l-4-2.3v4.6l4 2.3Zm2 0 4-2.3v-4.6l-4 2.3v4.6ZM1 6V4c0-.833.292-1.542.875-2.125A2.893 2.893 0 0 1 4 1h2v2H4a.967.967 0 0 0-.712.287A.968.968 0 0 0 3 4v2H1Zm3 17a2.893 2.893 0 0 1-2.125-.875A2.893 2.893 0 0 1 1 20v-2h2v2c0 .283.096.52.288.712A.965.965 0 0 0 4 21h2v2H4Zm14 0v-2h2c.283 0 .52-.096.712-.288A.965.965 0 0 0 21 20v-2h2v2c0 .833-.292 1.542-.875 2.125A2.893 2.893 0 0 1 20 23h-2Zm3-17V4a.968.968 0 0 0-.288-.713A.967.967 0 0 0 20 3h-2V1h2c.833 0 1.542.292 2.125.875S23 3.167 23 4v2h-2Zm-9 4.9 4-2.3-4-2.3-4 2.3 4 2.3Z" fill="#fff"/></g></svg><svg fill="none" viewBox="0 0 64 79" id="dots" xmlns="http://www.w3.org/2000/svg"><g opacity=".3" clip-path="url(#fa)" fill="#BBB9BA"><path d="M61.61 73.64a2.2 2.2 0 1 0 0 4.4 2.2 2.2 0 0 0 0-4.4ZM61.61 58.91a2.2 2.2 0 1 0 0 4.4 2.2 2.2 0 0 0 0-4.4ZM59.41 46.38c0 1.22.99 2.2 2.2 2.2 1.21 0 2.2-.99 2.2-2.2 0-1.21-.99-2.2-2.2-2.2-1.21 0-2.2.99-2.2 2.2ZM59.41 31.66c0 1.22.99 2.2 2.2 2.2 1.21 0 2.2-.99 2.2-2.2 0-1.21-.99-2.2-2.2-2.2-1.21 0-2.2.99-2.2 2.2ZM61.61 14.73a2.2 2.2 0 1 0 0 4.4 2.2 2.2 0 0 0 0-4.4ZM61.61 0a2.2 2.2 0 1 0 0 4.4 2.2 2.2 0 0 0 0-4.4ZM46.21 73.64a2.2 2.2 0 1 0 0 4.4 2.2 2.2 0 0 0 0-4.4ZM46.21 58.91a2.2 2.2 0 1 0 0 4.4 2.2 2.2 0 0 0 0-4.4ZM44.01 46.38c0 1.22.99 2.2 2.2 2.2 1.21 0 2.2-.99 2.2-2.2 0-1.21-.99-2.2-2.2-2.2-1.21 0-2.2.99-2.2 2.2ZM44.01 31.66c0 1.22.99 2.2 2.2 2.2 1.21 0 2.2-.99 2.2-2.2 0-1.21-.99-2.2-2.2-2.2-1.21 0-2.2.99-2.2 2.2ZM46.21 14.73a2.2 2.2 0 1 0 0 4.4 2.2 2.2 0 0 0 0-4.4ZM46.21 0a2.2 2.2 0 1 0 0 4.4 2.2 2.2 0 0 0 0-4.4ZM28.61 75.84c0 1.22.99 2.2 2.2 2.2 1.21 0 2.2-.99 2.2-2.2 0-1.21-.99-2.2-2.2-2.2-1.21 0-2.2.99-2.2 2.2ZM28.61 61.11c0 1.22.99 2.2 2.2 2.2 1.21 0 2.2-.99 2.2-2.2 0-1.21-.99-2.2-2.2-2.2-1.21 0-2.2.99-2.2 2.2ZM28.61 46.38c0 1.22.99 2.2 2.2 2.2 1.21 0 2.2-.99 2.2-2.2 0-1.21-.99-2.2-2.2-2.2-1.21 0-2.2.99-2.2 2.2ZM28.61 31.66c0 1.22.99 2.2 2.2 2.2 1.21 0 2.2-.99 2.2-2.2 0-1.21-.99-2.2-2.2-2.2-1.21 0-2.2.99-2.2 2.2ZM28.61 16.93c0 1.22.99 2.2 2.2 2.2 1.21 0 2.2-.99 2.2-2.2 0-1.21-.99-2.2-2.2-2.2-1.21 0-2.2.99-2.2 2.2ZM28.61 2.2c0 1.22.99 2.2 2.2 2.2 1.21 0 2.2-.99 2.2-2.2 0-1.21-.99-2.2-2.2-2.2-1.21 0-2.2.99-2.2 2.2ZM15.41 73.64a2.2 2.2 0 1 0 0 4.4 2.2 2.2 0 0 0 0-4.4ZM15.41 58.91a2.2 2.2 0 1 0 0 4.4 2.2 2.2 0 0 0 0-4.4ZM13.21 46.38c0 1.22.99 2.2 2.2 2.2 1.21 0 2.2-.99 2.2-2.2 0-1.21-.99-2.2-2.2-2.2-1.21 0-2.2.99-2.2 2.2ZM13.21 31.66c0 1.22.99 2.2 2.2 2.2 1.21 0 2.2-.99 2.2-2.2 0-1.21-.99-2.2-2.2-2.2-1.21 0-2.2.99-2.2 2.2ZM15.41 14.73a2.2 2.2 0 1 0 0 4.4 2.2 2.2 0 0 0 0-4.4ZM15.41 0a2.2 2.2 0 1 0 0 4.4 2.2 2.2 0 0 0 0-4.4ZM3.2 73.64a2.2 2.2 0 1 0 0 4.4 2.2 2.2 0 0 0 0-4.4ZM3.2 58.91a2.2 2.2 0 1 0 0 4.4 2.2 2.2 0 0 0 0-4.4ZM1 46.38c0 1.22.99 2.2 2.2 2.2 1.21 0 2.2-.99 2.2-2.2 0-1.21-.99-2.2-2.2-2.2-1.21 0-2.2.99-2.2 2.2ZM1 31.66c0 1.22.99 2.2 2.2 2.2 1.21 0 2.2-.99 2.2-2.2 0-1.21-.99-2.2-2.2-2.2-1.21 0-2.2.99-2.2 2.2ZM3.2 14.73a2.2 2.2 0 1 0 0 4.4 2.2 2.2 0 0 0 0-4.4ZM3.2 0a2.2 2.2 0 1 0 0 4.4 2.2 2.2 0 0 0 0-4.4Z"/></g><defs><clipPath id="fa"><path fill="#fff" transform="rotate(180 31.905 39.02)" d="M0 0h63.81v78.04H0z"/></clipPath></defs></svg><svg fill="none" viewBox="0 0 35 40" id="have_fun" xmlns="http://www.w3.org/2000/svg"><path d="M34.187 19.747c-.525-.546-1.116-.763-1.716-.763-1.142 0-2.32.784-3.149 1.582-.014.014-4.003 3.322-5.359 4.66-.246.242-.725.438-1.07.438a7.21 7.21 0 0 1-10.784 0h-.118c-.345 0-.836-.183-1.096-.41l-5.332-4.633c-.813-.783-1.965-1.608-3.082-1.609-.496 0-.986.163-1.436.566-1.575 1.407-.578 3.24.671 4.436l5.988 5.735s2.345 2.487 2.512 3.994v3.6A2.656 2.656 0 0 0 12.872 40h9.59a2.656 2.656 0 0 0 2.656-2.656v-3.601c.166-1.507 2.367-3.994 2.367-3.994l5.84-5.794c1.066-1.097 2.135-2.883.862-4.208Z" fill="#FD6585"/><path d="M23.477 20.86a5.977 5.977 0 1 1-11.954 0 5.977 5.977 0 0 1 11.954 0ZM6.25 13.437a3.125 3.125 0 1 1-6.25 0 3.125 3.125 0 0 1 6.25 0ZM20.625 3.125a3.125 3.125 0 1 1-6.25 0 3.125 3.125 0 0 1 6.25 0ZM8.748 3.438a3.123 3.123 0 1 0 .004 6.25 3.123 3.123 0 1 0-.004-6.25ZM24.59 8.897a3.12 3.12 0 0 0 4.306-.988 3.123 3.123 0 0 0-2.644-4.784 3.123 3.123 0 0 0-1.662 5.772ZM35 13.437a3.125 3.125 0 1 1-6.25 0 3.125 3.125 0 0 1 6.25 0Z" fill="#FD6585"/></svg><svg fill="none" viewBox="0 0 39 40" id="networking" xmlns="http://www.w3.org/2000/svg"><path d="M5.396 0a2.82 2.82 0 0 1 2.822 2.822 2.79 2.79 0 0 1-2.822 2.822c-1.534 0-2.772-1.238-2.772-2.822S3.862 0 5.396 0ZM10.842 14.752c0 .545-.149.94-.545 1.337-.742.693-2.673 1.139-4.901 1.139-2.228 0-4.158-.446-4.851-1.139C.148 15.693 0 15.247 0 14.703 0 9.9 3.168 6.93 5.396 6.93c2.277 0 5.446 2.97 5.446 7.822ZM33.515 0a2.82 2.82 0 0 1 2.822 2.822 2.79 2.79 0 0 1-2.822 2.822c-1.534 0-2.772-1.238-2.772-2.822S31.981 0 33.515 0ZM38.96 14.752c0 .545-.148.94-.544 1.337-.743.693-2.673 1.139-4.901 1.139-2.228 0-4.159-.446-4.852-1.139-.396-.396-.544-.842-.544-1.386 0-4.802 3.168-7.773 5.396-7.773 2.277 0 5.445 2.97 5.445 7.822ZM15.297 8.713h8.91c1.189 0 1.189-1.881 0-1.881h-8.91c-1.188 0-1.238 1.88 0 1.88ZM19.456 22.772a2.82 2.82 0 0 1 2.822 2.822 2.82 2.82 0 0 1-2.822 2.822c-1.535 0-2.773-1.238-2.773-2.822-.049-1.584 1.238-2.822 2.773-2.822ZM24.852 37.525c0 .544-.148.94-.544 1.337-.743.692-2.674 1.138-4.902 1.138-2.227 0-4.158-.446-4.851-1.139-.396-.396-.545-.841-.545-1.386 0-4.802 3.169-7.772 5.446-7.772 2.228 0 5.396 2.97 5.396 7.822ZM32.228 20.396c.841-.842 2.178.445 1.337 1.337l-6.288 6.287c-.841.841-2.178-.446-1.336-1.337 2.08-2.129 4.208-4.208 6.287-6.287ZM12.376 26.683c.842.841-.495 2.178-1.336 1.337l-6.288-6.288c-.841-.841.446-2.178 1.287-1.336 2.13 2.079 4.258 4.158 6.337 6.287Z" fill="#FD6585"/></svg><svg fill="none" viewBox="0 0 40 40" id="new_people" xmlns="http://www.w3.org/2000/svg"><path d="M12 0a8 8 0 0 1 0 16 8 8 0 0 1 0-16Zm4 29a12.887 12.887 0 0 1 5.3-10.44A4.95 4.95 0 0 0 19 18H5a5 5 0 0 0-5 5v12a5 5 0 0 0 5 5h14c.8.002 1.59-.19 2.3-.56A12.886 12.886 0 0 1 16 29Zm13-13a6 6 0 0 0 0-12 6 6 0 0 0 0 12Zm0 24c-14.526-.462-14.532-21.535 0-22 14.533.467 14.535 21.53 0 22Zm5-12h-4v-4a1 1 0 0 0-2 0v4h-4a1 1 0 0 0 0 2h4v4a1 1 0 0 0 2 0v-4h4a1 1 0 0 0 0-2Z" fill="#FD6585"/></svg><svg fill="inherit" viewBox="0 0 36 37" id="pin_drop" xmlns="http://www.w3.org/2000/svg"><mask id="ka" style="mask-type:alpha" maskUnits="userSpaceOnUse" x="0" y="0" width="36" height="37"><path d="M0 .5h36v36H0z"/></mask><g mask="url(#ka)"><path d="M18 25.212c2.475-2 4.344-3.924 5.607-5.774 1.262-1.85 1.893-3.588 1.893-5.213 0-1.4-.256-2.594-.768-3.582-.513-.987-1.145-1.787-1.895-2.4a7.292 7.292 0 0 0-2.437-1.33c-.875-.276-1.675-.413-2.4-.413-.725 0-1.525.138-2.4.412a7.292 7.292 0 0 0-2.438 1.331c-.75.613-1.38 1.413-1.893 2.4-.512.988-.769 2.182-.769 3.582 0 1.625.631 3.362 1.893 5.213 1.263 1.85 3.132 3.774 5.607 5.774ZM18 29c-3.525-2.6-6.156-5.125-7.895-7.575-1.737-2.45-2.605-4.85-2.605-7.2 0-1.775.319-3.332.957-4.67C9.094 8.22 9.912 7.1 10.912 6.2c1-.9 2.125-1.575 3.375-2.025 1.25-.45 2.488-.675 3.713-.675s2.462.225 3.712.675c1.25.45 2.375 1.125 3.375 2.025 1 .9 1.82 2.019 2.457 3.356.637 1.338.956 2.894.956 4.669 0 2.35-.869 4.75-2.607 7.2C24.156 23.875 21.525 26.4 18 29Zm0-12a2.89 2.89 0 0 0 2.12-.882c.586-.587.88-1.293.88-2.118s-.294-1.531-.88-2.12A2.893 2.893 0 0 0 18 11c-.825 0-1.531.293-2.118.88A2.89 2.89 0 0 0 15 14c0 .825.294 1.531.882 2.118A2.885 2.885 0 0 0 18 17ZM7.5 33.5v-3h21v3h-21Z"/></g></svg><svg fill="none" viewBox="0 0 28 24" id="session" xmlns="http://www.w3.org/2000/svg"><path d="M20.029 22.447h-5.252v-3.334h-1.553v3.334H7.972c-.517 0-.777.388-.777.777 0 .388.26.776.777.776H20.03c.517 0 .776-.388.776-.777 0-.388-.26-.776-.776-.776ZM26.97.991H15.118V.49c0-.244-.162-.489-.49-.489h-1.255c-.326 0-.49.244-.49.49V.99H1.03c-.517 0-.777.388-.777.777 0 .388.26.777.777.777h25.94c.517 0 .777-.389.777-.777 0-.389-.26-.777-.777-.777ZM26.193 16.76V3.32l-1.468.009v13.43H3.275V3.33l-1.47-.008v13.438c-.516 0-.776.388-.776.777s.26.777.777.777h24.386c.517 0 .777-.388.777-.777 0-.388-.26-.776-.777-.776Z" fill="#FD6585"/></svg><svg fill="none" viewBox="0 0 32 24" id="speaker" xmlns="http://www.w3.org/2000/svg"><path d="M6.945 11.526a.89.89 0 0 1-.296.05 5.788 5.788 0 1 1 5.788-5.788.892.892 0 0 1-.037.256c-.318 1.064-1.07 2.15-2.238 3.28-1.151 1.112-2.216 1.85-3.217 2.202Zm14.986 8.285 1.378 1.378a3.517 3.517 0 1 0 4.974-4.975L22.05 9.98a5.298 5.298 0 1 1 7.494-7.493l1.335 1.336a.89.89 0 0 1-1.259 1.26l-1.336-1.337a3.517 3.517 0 1 0-4.974 4.975l6.234 6.234a5.298 5.298 0 1 1-7.493 7.493l-1.378-1.378a1.781 1.781 0 0 1-2.315-.003L8.62 12.722c.909-.491 1.828-1.198 2.78-2.118.968-.937 1.705-1.87 2.202-2.821l8.326 9.713c.575.67.567 1.654.003 2.315Z" fill="#FD6585"/></svg><svg fill="none" viewBox="0 0 24 24" id="ticket" xmlns="http://www.w3.org/2000/svg"><mask id="na" style="mask-type:alpha" maskUnits="userSpaceOnUse" x="0" y="0" width="24" height="24"><path fill="#D9D9D9" d="M0 0h24v24H0z"/></mask><g mask="url(#na)"><path d="m9.2 16 2.8-2.1 2.75 2.1-1.05-3.4 2.8-2.2h-3.4L12 7l-1.1 3.4H7.5l2.75 2.2L9.2 16ZM4 20c-.55 0-1.02-.196-1.412-.587A1.927 1.927 0 0 1 2 18v-4c.55 0 1.021-.196 1.413-.588C3.804 13.021 4 12.55 4 12c0-.55-.196-1.021-.587-1.413A1.928 1.928 0 0 0 2 10V6c0-.55.196-1.02.588-1.412A1.923 1.923 0 0 1 4 4h16c.55 0 1.021.196 1.413.588.391.391.587.862.587 1.412v4c-.55 0-1.021.196-1.413.587A1.928 1.928 0 0 0 20 12c0 .55.196 1.02.587 1.412.392.392.863.588 1.413.588v4c0 .55-.196 1.021-.587 1.413A1.928 1.928 0 0 1 20 20H4Z" fill="#fff"/></g></svg><svg fill="none" viewBox="0 0 20 20" id="time" xmlns="http://www.w3.org/2000/svg"><mask id="oa" style="mask-type:alpha" maskUnits="userSpaceOnUse" x="0" y="0" width="20" height="20"><path fill="#E61053" d="M0 0h20v20H0z"/></mask><g mask="url(#oa)"><path d="M10 18.333a7.257 7.257 0 0 1-2.927-.593 7.619 7.619 0 0 1-2.375-1.605 7.619 7.619 0 0 1-1.605-2.375 7.257 7.257 0 0 1-.593-2.927c0-1.041.198-2.017.593-2.927A7.632 7.632 0 0 1 4.698 5.53a7.615 7.615 0 0 1 2.375-1.603A7.249 7.249 0 0 1 10 3.333c1.042 0 2.018.198 2.928.595.909.395 1.7.93 2.375 1.603a7.642 7.642 0 0 1 1.604 2.375c.395.91.593 1.886.593 2.927a7.258 7.258 0 0 1-.593 2.927 7.628 7.628 0 0 1-1.604 2.375 7.632 7.632 0 0 1-2.375 1.605 7.262 7.262 0 0 1-2.928.593Zm2.333-4 1.167-1.166-2.667-2.667V6.667H9.167v4.5l3.166 3.166ZM4.667 1.958l1.166 1.167-3.541 3.542L1.125 5.5l3.542-3.542Zm10.666 0L18.875 5.5l-1.167 1.167-3.541-3.542 1.166-1.167ZM10 16.667c1.625 0 3.003-.566 4.135-1.699 1.132-1.131 1.698-2.51 1.698-4.135s-.566-3.003-1.698-4.135C13.003 5.566 11.625 5 10 5s-3.003.566-4.135 1.698c-1.132 1.132-1.698 2.51-1.698 4.135s.566 3.004 1.698 4.135c1.132 1.133 2.51 1.699 4.135 1.699Z" fill="#676767"/></g></svg><svg fill="none" viewBox="0 0 132 10" id="wave" xmlns="http://www.w3.org/2000/svg"><path d="M132 9.48c-4.011 0-6.08-2.24-7.913-4.215-1.771-1.912-3.432-3.714-6.754-3.714-3.322 0-4.998 1.802-6.753 3.714-1.834 1.974-3.902 4.215-7.913 4.215-4.012 0-6.08-2.24-7.898-4.215-1.77-1.912-3.431-3.714-6.753-3.714s-4.999 1.802-6.754 3.714C79.43 7.239 77.36 9.48 73.365 9.48c-3.996 0-6.08-2.24-7.913-4.215-1.771-1.912-3.432-3.714-6.754-3.714-3.322 0-4.999 1.802-6.754 3.714-1.833 1.974-3.901 4.215-7.913 4.215-4.011 0-6.08-2.24-7.913-4.215-1.77-1.912-3.431-3.714-6.753-3.714s-4.999 1.802-6.77 3.714c-1.833 1.974-3.901 4.215-7.913 4.215-4.011 0-6.08-2.24-7.913-4.215C5 3.369 3.322 1.567 0 1.567V0c4.011 0 6.08 2.24 7.913 4.215 1.77 1.912 3.432 3.714 6.77 3.714 3.337 0 4.998-1.802 6.769-3.714C23.285 2.241 25.353 0 29.365 0c4.011 0 6.08 2.24 7.913 4.215 1.77 1.912 3.431 3.714 6.753 3.714s4.999-1.802 6.754-3.714C52.618 2.241 54.687 0 58.698 0s6.08 2.24 7.913 4.215c1.77 1.912 3.432 3.714 6.754 3.714 3.322 0 4.983-1.802 6.753-3.714C81.952 2.241 84.02 0 88.031 0c4.012 0 6.08 2.24 7.913 4.215 1.771 1.912 3.432 3.714 6.754 3.714 3.322 0 4.999-1.802 6.754-3.714C111.285 2.241 113.353 0 117.365 0c4.011 0 6.079 2.24 7.913 4.215 1.77 1.912 3.431 3.714 6.753 3.714v1.567L132 9.48Z" fill="#61E8EC"/></svg><svg fill="none" viewBox="0 0 133 10" id="wave2" xmlns="http://www.w3.org/2000/svg"><path d="M132 9.48c-4.011 0-6.08-2.24-7.913-4.215-1.771-1.912-3.432-3.714-6.754-3.714-3.322 0-4.998 1.802-6.753 3.714-1.834 1.974-3.902 4.215-7.913 4.215-4.012 0-6.08-2.24-7.898-4.215-1.77-1.912-3.431-3.714-6.753-3.714s-4.999 1.802-6.754 3.714C79.43 7.239 77.36 9.48 73.365 9.48c-3.996 0-6.08-2.24-7.913-4.215-1.771-1.912-3.432-3.714-6.754-3.714-3.322 0-4.999 1.802-6.754 3.714-1.833 1.974-3.901 4.215-7.913 4.215-4.011 0-6.08-2.24-7.913-4.215-1.77-1.912-3.431-3.714-6.753-3.714s-4.999 1.802-6.77 3.714c-1.833 1.974-3.901 4.215-7.913 4.215-4.011 0-6.08-2.24-7.913-4.215C5 3.369 3.322 1.567 0 1.567V0c4.011 0 6.08 2.24 7.913 4.215 1.77 1.912 3.432 3.714 6.77 3.714 3.337 0 4.998-1.802 6.769-3.714C23.285 2.241 25.353 0 29.365 0c4.011 0 6.08 2.24 7.913 4.215 1.77 1.912 3.431 3.714 6.753 3.714s4.999-1.802 6.754-3.714C52.618 2.241 54.687 0 58.698 0s6.08 2.24 7.913 4.215c1.77 1.912 3.432 3.714 6.754 3.714 3.322 0 4.983-1.802 6.753-3.714C81.952 2.241 84.02 0 88.031 0c4.012 0 6.08 2.24 7.913 4.215 1.771 1.912 3.432 3.714 6.754 3.714 3.322 0 4.999-1.802 6.754-3.714C111.285 2.241 113.353 0 117.365 0c4.011 0 6.079 2.24 7.913 4.215 1.77 1.912 3.431 3.714 6.753 3.714v1.567L132 9.48Z" fill="url(#sa)"/><defs><linearGradient id="sa" x1="66.016" y1="0" x2="66.016" y2="9.496" gradientUnits="userSpaceOnUse"><stop stop-color="#61E8EC"/><stop offset="1" stop-color="#1F2636" stop-opacity="0"/></linearGradient></defs></svg></svg>